Coordinates
version=1
nRows=9
nColumns=24
inDegrees=yes

Units are S.I. units (second, meters, Newtons, ...)
Angles are in degrees.

endheader
time	pelvis_tilt	pelvis_list	pelvis_rotation	pelvis_tx	pelvis_ty	pelvis_tz	hip_flexion_r	hip_adduction_r	hip_rotation_r	knee_angle_r	ankle_angle_r	subtalar_angle_r	mtp_angle_r	hip_flexion_l	hip_adduction_l	hip_rotation_l	knee_angle_l	ankle_angle_l	subtalar_angle_l	mtp_angle_l	lumbar_extension	lumbar_bending	lumbar_rotation
      3.51500000	    -11.90733944	     10.17398161	     -3.89654469	     -0.74829277	     -0.05001528	     -0.27244117	     10.54234806	    -16.77327396	     -6.79923875	    -55.71107672	    -30.87636032	    -16.70101129	     18.07427437	     35.22980289	      8.60081253	     -5.32115154	    -27.99203899	     -1.32751201	    -14.77370177	     -9.55922251	      9.74752754	    -11.26677520	      7.16169434
      3.52000000	    -11.86085007	     10.22253030	     -3.76919865	     -0.74063366	     -0.04851677	     -0.27293247	     11.63987185	    -16.67743153	     -6.47581656	    -57.11702139	    -30.03352630	    -17.86728169	     17.79494724	     34.49915814	      8.81428608	     -5.26804471	    -27.69571749	     -0.87636626	    -14.55823170	     -9.32111699	      9.63517544	    -11.36258448	      6.97024629
      3.52500000	    -11.79377770	     10.21373889	     -3.65395691	     -0.73298619	     -0.04690446	     -0.27341588	     12.69030344	    -16.52012595	     -6.19543672	    -58.40131410	    -28.99022777	    -18.71769609	     17.50681190	     33.72693642	      8.97316462	     -5.17142059	    -27.37548209	     -0.45040736	    -14.35873449	     -9.07853742	      9.49665842	    -11.39511143	      6.75950166
      3.53000000	    -11.69610871	     10.14426172	     -3.50666355	     -0.72527045	     -0.04512954	     -0.27397420	     13.63877382	    -16.31187345	     -6.01709496	    -59.49938373	    -27.99307094	    -19.43909202	     17.57421599	     32.87656703	      9.12056596	     -4.90087139	    -26.99764246	     -0.07652496	    -14.24540815	     -8.94949458	      9.32670222	    -11.36268624	      6.50913490
      3.53500000	    -11.61953138	     10.00125773	     -3.44386092	     -0.71773326	     -0.04333975	     -0.27439137	     14.64548342	    -15.98952066	     -5.76706660	    -60.52316304	    -26.85313302	    -19.80494233	     17.68288311	     32.07651624	      9.12214640	     -4.74940981	    -26.65889574	      0.30483885	    -14.06680878	     -8.79415084	      9.16408934	    -11.23499997	      6.32175657
      3.54000000	    -11.55515082	      9.80018389	     -3.36882303	     -0.71019054	     -0.04151338	     -0.27486049	     15.63027751	    -15.61464975	     -5.58870937	    -61.41650355	    -25.74564457	    -19.98717691	     17.90446894	     31.27366017	      9.08360897	     -4.51585974	    -26.30008401	      0.65149947	    -13.96705629	     -8.67357868	      9.01336953	    -11.03951939	      6.12381714
      3.54500000	    -11.50840356	      9.54258666	     -3.29684669	     -0.70262526	     -0.03966747	     -0.27533898	     16.60494880	    -15.17954524	     -5.45130497	    -62.18678185	    -24.68139679	    -19.96644826	     18.24014938	     30.47368677	      8.98938977	     -4.23121167	    -25.92428631	      1.00116433	    -13.89896031	     -8.57621327	      8.88955199	    -10.77550846	      5.92404945
      3.55000000	    -11.51305815	      9.33922077	     -3.21701773	     -0.69520232	     -0.03794930	     -0.27588805	     17.65910313	    -14.82315752	     -5.30383218	    -62.90746314	    -23.58301102	    -19.64023562	     19.19217061	     29.74888793	      8.95001424	     -3.95108263	    -25.54366944	      1.23457324	    -13.91366055	     -8.53901016	      8.80058073	    -10.55833878	      5.73101102
      3.55500000	    -11.52118377	      8.99867204	     -3.06174685	     -0.68769232	     -0.03616412	     -0.27642929	     18.61191118	    -14.32795802	     -5.31714354	    -63.45538989	    -22.56185943	    -19.26529914	     19.98018633	     29.01174401	      8.79125874	     -3.57519869	    -25.18454355	      1.58790593	    -13.76067117	     -8.48692193	      8.71606970	    -10.22068742	      5.44841204
